{
    "asset" : {
        "generator" : "Khronos glTF Blender I/O v1.6.16",
        "version" : "2.0"
    },
    "scene" : 0,
    "scenes" : [
        {
            "name" : "Scene",
            "nodes" : [
                3,
                4,
                5
            ]
        }
    ],
    "nodes" : [
        {
            "mesh" : 0,
            "name" : "LZB210_460_BASE"
        },
        {
            "mesh" : 1,
            "name" : "LZB210_460_FABRIC"
        },
        {
            "mesh" : 2,
            "name" : "LZB210_460_FABRIC_WELT"
        },
        {
            "children" : [
                0,
                1,
                2
            ],
            "name" : "RootNode"
        },
        {
            "name" : "Light",
            "rotation" : [
                0.16907575726509094,
                0.7558803558349609,
                -0.27217137813568115,
                0.570947527885437
            ],
            "translation" : [
                4.076245307922363,
                5.903861999511719,
                -1.0054539442062378
            ]
        },
        {
            "name" : "Camera",
            "rotation" : [
                0.483536034822464,
                0.33687159419059753,
                -0.20870360732078552,
                0.7804827094078064
            ],
            "translation" : [
                7.358891487121582,
                4.958309173583984,
                6.925790786743164
            ]
        }
    ],
    "materials" : [
        {
            "name" : "M_0_0-efa5dd5b-7670-4abd-b18c-38918a23ce96",
            "normalTexture" : {
                "index" : 0
            },
            "pbrMetallicRoughness" : {
                "baseColorTexture" : {
                    "index" : 1
                },
                "metallicRoughnessTexture" : {
                    "index" : 2
                }
            }
        },
        {
            "name" : "M_0_0-27c086fe-7023-40f9-8ca2-f597e1282287",
            "normalTexture" : {
                "index" : 3
            },
            "pbrMetallicRoughness" : {
                "baseColorTexture" : {
                    "index" : 4
                },
                "metallicRoughnessTexture" : {
                    "index" : 5
                }
            }
        },
        {
            "name" : "M_0_0-e22f140d-ba4a-4b18-b140-e893edbbe07e",
            "normalTexture" : {
                "index" : 6
            },
            "pbrMetallicRoughness" : {
                "baseColorTexture" : {
                    "index" : 7
                },
                "metallicRoughnessTexture" : {
                    "index" : 8
                }
            }
        }
    ],
    "meshes" : [
        {
            "name" : "LZB210_460_BASE",
            "primitives" : [
                {
                    "attributes" : {
                        "POSITION" : 0,
                        "NORMAL" : 1,
                        "TEXCOORD_0" : 2
                    },
                    "indices" : 3,
                    "material" : 0
                }
            ]
        },
        {
            "name" : "LZB210_460_FABRIC",
            "primitives" : [
                {
                    "attributes" : {
                        "POSITION" : 4,
                        "NORMAL" : 5,
                        "TEXCOORD_0" : 6
                    },
                    "indices" : 7,
                    "material" : 1
                }
            ]
        },
        {
            "name" : "LZB210_460_FABRIC_WELT",
            "primitives" : [
                {
                    "attributes" : {
                        "POSITION" : 8,
                        "NORMAL" : 9,
                        "TEXCOORD_0" : 10
                    },
                    "indices" : 11,
                    "material" : 2
                }
            ]
        }
    ],
    "textures" : [
        {
            "sampler" : 0,
            "source" : 0
        },
        {
            "sampler" : 0,
            "source" : 1
        },
        {
            "sampler" : 0,
            "source" : 2
        },
        {
            "sampler" : 0,
            "source" : 3
        },
        {
            "sampler" : 0,
            "source" : 4
        },
        {
            "sampler" : 0,
            "source" : 5
        },
        {
            "sampler" : 0,
            "source" : 6
        },
        {
            "sampler" : 0,
            "source" : 7
        },
        {
            "sampler" : 0,
            "source" : 8
        }
    ],
    "images" : [
        {
            "bufferView" : 4,
            "mimeType" : "image/png",
            "name" : "Image_5"
        },
        {
            "bufferView" : 5,
            "mimeType" : "image/png",
            "name" : "Image_3"
        },
        {
            "bufferView" : 6,
            "mimeType" : "image/png",
            "name" : "Image_4"
        },
        {
            "bufferView" : 11,
            "mimeType" : "image/png",
            "name" : "Image_8"
        },
        {
            "bufferView" : 12,
            "mimeType" : "image/png",
            "name" : "Image_6"
        },
        {
            "bufferView" : 13,
            "mimeType" : "image/png",
            "name" : "Image_7"
        },
        {
            "bufferView" : 18,
            "mimeType" : "image/png",
            "name" : "Image_2"
        },
        {
            "bufferView" : 19,
            "mimeType" : "image/png",
            "name" : "Image_0"
        },
        {
            "bufferView" : 20,
            "mimeType" : "image/png",
            "name" : "Image_1"
        }
    ],
    "accessors" : [
        {
            "bufferView" : 0,
            "componentType" : 5126,
            "count" : 1048,
            "max" : [
                0.2536768913269043,
                0.18022750318050385,
                0.28553760051727295
            ],
            "min" : [
                -0.2536770701408386,
                2.8475509949998923e-08,
                -0.21561883389949799
            ],
            "type" : "VEC3"
        },
        {
            "bufferView" : 1,
            "componentType" : 5126,
            "count" : 1048,
            "type" : "VEC3"
        },
        {
            "bufferView" : 2,
            "componentType" : 5126,
            "count" : 1048,
            "type" : "VEC2"
        },
        {
            "bufferView" : 3,
            "componentType" : 5123,
            "count" : 4176,
            "type" : "SCALAR"
        },
        {
            "bufferView" : 7,
            "componentType" : 5126,
            "count" : 5520,
            "max" : [
                0.4154541790485382,
                0.9221623539924622,
                0.449309766292572
            ],
            "min" : [
                -0.41545432806015015,
                0.17782628536224365,
                -0.44930970668792725
            ],
            "type" : "VEC3"
        },
        {
            "bufferView" : 8,
            "componentType" : 5126,
            "count" : 5520,
            "type" : "VEC3"
        },
        {
            "bufferView" : 9,
            "componentType" : 5126,
            "count" : 5520,
            "type" : "VEC2"
        },
        {
            "bufferView" : 10,
            "componentType" : 5123,
            "count" : 29364,
            "type" : "SCALAR"
        },
        {
            "bufferView" : 14,
            "componentType" : 5126,
            "count" : 1837,
            "max" : [
                0.4168938398361206,
                0.9141265153884888,
                0.4382362961769104
            ],
            "min" : [
                -0.4168938398361206,
                0.1826159954071045,
                -0.4433927536010742
            ],
            "type" : "VEC3"
        },
        {
            "bufferView" : 15,
            "componentType" : 5126,
            "count" : 1837,
            "type" : "VEC3"
        },
        {
            "bufferView" : 16,
            "componentType" : 5126,
            "count" : 1837,
            "type" : "VEC2"
        },
        {
            "bufferView" : 17,
            "componentType" : 5123,
            "count" : 9312,
            "type" : "SCALAR"
        }
    ],
    "bufferViews" : [
        {
            "buffer" : 0,
            "byteLength" : 12576,
            "byteOffset" : 0
        },
        {
            "buffer" : 0,
            "byteLength" : 12576,
            "byteOffset" : 12576
        },
        {
            "buffer" : 0,
            "byteLength" : 8384,
            "byteOffset" : 25152
        },
        {
            "buffer" : 0,
            "byteLength" : 8352,
            "byteOffset" : 33536
        },
        {
            "buffer" : 0,
            "byteLength" : 796545,
            "byteOffset" : 41888
        },
        {
            "buffer" : 0,
            "byteLength" : 683946,
            "byteOffset" : 838436
        },
        {
            "buffer" : 0,
            "byteLength" : 5334,
            "byteOffset" : 1522384
        },
        {
            "buffer" : 0,
            "byteLength" : 66240,
            "byteOffset" : 1527720
        },
        {
            "buffer" : 0,
            "byteLength" : 66240,
            "byteOffset" : 1593960
        },
        {
            "buffer" : 0,
            "byteLength" : 44160,
            "byteOffset" : 1660200
        },
        {
            "buffer" : 0,
            "byteLength" : 58728,
            "byteOffset" : 1704360
        },
        {
            "buffer" : 0,
            "byteLength" : 156758,
            "byteOffset" : 1763088
        },
        {
            "buffer" : 0,
            "byteLength" : 50714,
            "byteOffset" : 1919848
        },
        {
            "buffer" : 0,
            "byteLength" : 47866,
            "byteOffset" : 1970564
        },
        {
            "buffer" : 0,
            "byteLength" : 22044,
            "byteOffset" : 2018432
        },
        {
            "buffer" : 0,
            "byteLength" : 22044,
            "byteOffset" : 2040476
        },
        {
            "buffer" : 0,
            "byteLength" : 14696,
            "byteOffset" : 2062520
        },
        {
            "buffer" : 0,
            "byteLength" : 18624,
            "byteOffset" : 2077216
        },
        {
            "buffer" : 0,
            "byteLength" : 156758,
            "byteOffset" : 2095840
        },
        {
            "buffer" : 0,
            "byteLength" : 50714,
            "byteOffset" : 2252600
        },
        {
            "buffer" : 0,
            "byteLength" : 47866,
            "byteOffset" : 2303316
        }
    ],
    "samplers" : [
        {
            "magFilter" : 9729,
            "minFilter" : 9987
        }
    ],
    "buffers" : [
        {
            "byteLength" : 2351184,
            "uri" : "data:application/octet-stream;base64,"
        }
    ]
}
